<svg preserveAspectRatio="none" width="100%" height="100%" overflow="visible" style="display: block;" viewBox="0 0 26.6667 18.6667" fill="none" xmlns="http://www.w3.org/2000/svg">
<g id="Container">
<path id="Icon" d="M17.3333 14.6667H22.6667V9.33333H20.6667V12.6667H17.3333V14.6667V14.6667M13.3333 13.3333C14.4444 13.3333 15.3889 12.9444 16.1667 12.1667C16.9444 11.3889 17.3333 10.4444 17.3333 9.33333C17.3333 8.22222 16.9444 7.27778 16.1667 6.5C15.3889 5.72222 14.4444 5.33333 13.3333 5.33333C12.2222 5.33333 11.2778 5.72222 10.5 6.5C9.72222 7.27778 9.33333 8.22222 9.33333 9.33333C9.33333 10.4444 9.72222 11.3889 10.5 12.1667C11.2778 12.9444 12.2222 13.3333 13.3333 13.3333V13.3333M4 9.33333H6V6H9.33333V4H4V9.33333V9.33333M0 18.6667V0H26.6667V18.6667H0V18.6667M2.66667 16H24V2.66667H2.66667V16V16M2.66667 16V2.66667V2.66667V16V16V16" fill="var(--fill-0, #000C26)"/>
</g>
</svg>
