<svg preserveAspectRatio="none" width="100%" height="100%" overflow="visible" style="display: block;" viewBox="0 0 33 28.425" fill="none" xmlns="http://www.w3.org/2000/svg">
<path id="Icon" d="M28.425 20.85L26.1 18.525C27.2 17.5 28.0625 16.2875 28.6875 14.8875C29.3125 13.4875 29.625 12 29.625 10.425C29.625 8.85 29.3125 7.375 28.6875 6C28.0625 4.625 27.2 3.425 26.1 2.4L28.425 0C29.825 1.325 30.9375 2.8875 31.7625 4.6875C32.5875 6.4875 33 8.4 33 10.425C33 12.45 32.5875 14.3625 31.7625 16.1625C30.9375 17.9625 29.825 19.525 28.425 20.85V20.85M23.625 16.05L21.225 13.65C21.675 13.225 22.0375 12.7438 22.3125 12.2063C22.5875 11.6688 22.725 11.075 22.725 10.425C22.725 9.775 22.5875 9.18125 22.3125 8.64375C22.0375 8.10625 21.675 7.625 21.225 7.2L23.625 4.8C24.425 5.525 25.05 6.36875 25.5 7.33125C25.95 8.29375 26.175 9.325 26.175 10.425C26.175 11.525 25.95 12.5563 25.5 13.5188C25.05 14.4813 24.425 15.325 23.625 16.05V16.05M12 16.425C10.35 16.425 8.9375 15.8375 7.7625 14.6625C6.5875 13.4875 6 12.075 6 10.425C6 8.775 6.5875 7.3625 7.7625 6.1875C8.9375 5.0125 10.35 4.425 12 4.425C13.65 4.425 15.0625 5.0125 16.2375 6.1875C17.4125 7.3625 18 8.775 18 10.425C18 12.075 17.4125 13.4875 16.2375 14.6625C15.0625 15.8375 13.65 16.425 12 16.425V16.425M0 28.425V24.225C0 23.4 0.2125 22.625 0.6375 21.9C1.0625 21.175 1.65 20.625 2.4 20.25C3.675 19.6 5.1125 19.05 6.7125 18.6C8.3125 18.15 10.075 17.925 12 17.925C13.925 17.925 15.6875 18.15 17.2875 18.6C18.8875 19.05 20.325 19.6 21.6 20.25C22.35 20.625 22.9375 21.175 23.3625 21.9C23.7875 22.625 24 23.4 24 24.225V28.425H0V28.425M3 25.425H21V24.225C21 23.95 20.9313 23.7 20.7938 23.475C20.6563 23.25 20.475 23.075 20.25 22.95C19.35 22.5 18.1938 22.05 16.7812 21.6C15.3687 21.15 13.775 20.925 12 20.925C10.225 20.925 8.63125 21.15 7.21875 21.6C5.80625 22.05 4.65 22.5 3.75 22.95C3.525 23.075 3.34375 23.25 3.20625 23.475C3.06875 23.7 3 23.95 3 24.225V25.425V25.425M12 13.425C12.825 13.425 13.5312 13.1312 14.1187 12.5437C14.7062 11.9562 15 11.25 15 10.425C15 9.6 14.7062 8.89375 14.1187 8.30625C13.5312 7.71875 12.825 7.425 12 7.425C11.175 7.425 10.4688 7.71875 9.88125 8.30625C9.29375 8.89375 9 9.6 9 10.425C9 11.25 9.29375 11.9562 9.88125 12.5437C10.4688 13.1312 11.175 13.425 12 13.425V13.425M12 10.425V10.425V10.425V10.425V10.425V10.425V10.425V10.425V10.425V10.425M12 25.425V25.425V25.425V25.425V25.425V25.425V25.425V25.425V25.425V25.425V25.425V25.425V25.425" fill="var(--fill-0, #000C26)"/>
</svg>
